<?xml version="1.0" standalone="no"?>
<!DOCTYPE svg PUBLIC "-//W3C//DTD SVG 20010904//EN"
 "http://www.w3.org/TR/2001/REC-SVG-20010904/DTD/svg10.dtd">
<svg version="1.0" xmlns="http://www.w3.org/2000/svg"
 width="300.000000pt" height="46.000000pt" viewBox="0 0 300.000000 46.000000"
 preserveAspectRatio="xMidYMid meet">
<metadata>
Created by potrace 1.10, written by Peter Selinger 2001-2011
</metadata>
<g transform="translate(0.000000,46.000000) scale(0.100000,-0.100000)"
fill="#591bac" stroke="none">
<path d="M0 235 l0 -225 195 0 195 0 0 35 0 35 -155 0 -155 0 0 190 0 190 -40
0 -40 0 0 -225z"/>
<path d="M450 235 l0 -225 195 0 195 0 0 35 0 35 -155 0 -155 0 0 150 0 150
155 0 155 0 0 40 0 40 -195 0 -195 0 0 -225z"/>
<path d="M900 420 l0 -40 90 0 90 0 0 -185 0 -185 35 0 35 0 0 185 0 185 90 0
90 0 0 40 0 40 -215 0 -215 0 0 -40z"/>
<path d="M1410 235 l0 -225 143 0 c163 0 203 9 254 53 50 44 73 98 73 174 0
77 -11 108 -58 156 -52 54 -106 67 -274 67 l-138 0 0 -225z m328 125 c94 -58
95 -199 1 -255 -27 -16 -57 -21 -146 -24 l-113 -3 0 151 0 151 113 0 c94 0
117 -3 145 -20z"/>
<path d="M1950 235 l0 -225 195 0 195 0 0 35 0 35 -155 0 -155 0 0 150 0 150
155 0 155 0 0 40 0 40 -195 0 -195 0 0 -225z"/>
<path d="M2400 456 c0 -10 252 -421 269 -439 10 -10 24 -15 34 -11 14 5 287
431 287 448 0 3 -20 6 -44 6 l-45 0 -103 -169 c-62 -103 -106 -165 -110 -158
-4 7 -49 82 -101 167 l-93 155 -47 3 c-26 2 -47 1 -47 -2z"/>
<path d="M560 235 l0 -35 130 0 130 0 0 35 0 35 -130 0 -130 0 0 -35z"/>
<path d="M2070 235 l0 -35 125 0 125 0 0 35 0 35 -125 0 -125 0 0 -35z"/>
</g>
</svg>
