<?xml version="1.0"?>
<svg width="57" height="54" xmlns="http://www.w3.org/2000/svg" xmlns:svg="http://www.w3.org/2000/svg">
 <g class="layer">
  <title>Layer 1</title>
  <path d="m22.68,4.02l1.55,-2.68l0.65,0.37l0.12,-0.21l0.12,0.21l0.65,-0.37l1.55,2.68l-0.65,0.37l1.55,2.68l0.65,-0.37l1.54,2.68l-0.65,0.37l1.55,2.68l0.65,-0.38l1.55,2.68l-0.65,0.38l1.54,2.68l0.65,-0.38l1.55,2.68l-0.65,0.37l1.55,2.68l0.65,-0.37l1.54,2.68l-0.65,0.37l1.55,2.68l0.65,-0.37l1.54,2.67l-0.65,0.38l1.55,2.68l0.65,-0.38l1.55,2.68l-0.65,0.38l0.12,0.21l-0.25,0l0,0.75l-3.09,0l0,-0.75l-3.09,0l0,0.75l-3.09,0l0,-0.75l-3.1,0l0,0.75l-3.09,0l0,-0.75l-3.09,0l0,0.75l-3.1,0l0,-0.75l-3.09,0l0,0.75l-3.09,0l0,-0.75l-3.1,0l0,0.75l-3.09,0l0,-0.75l-3.09,0l0,0.75l-3.09,0l0,-0.75l-0.25,0l0.12,-0.21l-0.65,-0.38l1.55,-2.68l0.65,0.38l1.55,-2.68l-0.65,-0.38l1.54,-2.67l0.65,0.37l1.55,-2.68l-0.65,-0.37l1.55,-2.68l0.64,0.37l1.55,-2.68l-0.65,-0.37l1.55,-2.68l0.65,0.38l1.54,-2.68l-0.65,-0.38l1.55,-2.68l0.65,0.38l1.55,-2.68l-0.65,-0.37l1.54,-2.68l0.65,0.37l1.55,-2.68l-0.65,-0.37z" id="svg_1" stroke="#999696" stroke-dasharray="3 3" stroke-width="1.5"/>
  <path d="m32,4l21.65,37.5l-43.3,0l21.65,-37.5z" fill="#7f00ff" id="svg_2"/>
 </g>
</svg>