<?xml version="1.0" standalone="no"?>
<!DOCTYPE svg PUBLIC "-//W3C//DTD SVG 20010904//EN"
 "http://www.w3.org/TR/2001/REC-SVG-20010904/DTD/svg10.dtd">
<svg version="1.0" xmlns="http://www.w3.org/2000/svg"
 width="300.000000pt" height="402.000000pt" viewBox="0 0 300.000000 402.000000"
 preserveAspectRatio="xMidYMid meet">
<metadata>
Created by potrace 1.10, written by Peter Selinger 2001-2011
</metadata>
<g transform="translate(0.000000,402.000000) scale(0.050000,-0.050000)"
fill="#5a1aaf" stroke="none">
<path d="M2889 7795 c-239 -566 -449 -1221 -406 -1265 6 -6 125 13 263 43
l253 53 252 -54 c139 -30 258 -50 264 -43 50 49 -451 1491 -518 1491 -7 0 -56
-101 -108 -225z"/>
<path d="M2580 6414 c-620 -212 -810 -699 -611 -1564 172 -748 251 -1473 218
-2015 -15 -249 -12 -246 -136 -114 -165 177 -234 372 -320 906 -82 507 -170
718 -377 905 -329 296 -844 306 -1167 23 -108 -95 -141 -190 -167 -481 -48
-527 34 -791 351 -1135 300 -327 352 -431 477 -969 98 -418 220 -581 625 -831
443 -274 482 -310 714 -666 227 -348 425 -458 822 -455 380 3 617 143 820 485
149 249 287 382 602 577 508 314 613 453 738 982 112 472 154 552 451 872 328
352 429 741 339 1306 -89 552 -912 711 -1354 261 -189 -192 -266 -396 -354
-941 -76 -476 -164 -707 -331 -870 -102 -100 -103 -98 -115 204 -21 544 53
1217 209 1896 172 750 120 1083 -221 1406 -267 252 -823 352 -1213 218z"/>
<path d="M5602 5467 c-29 -159 -69 -241 -200 -413 l-99 -129 113 -13 c130 -15
283 -80 381 -162 l67 -57 -14 119 c-29 247 -178 788 -218 788 -3 0 -16 -60
-30 -133z"/>
<path d="M296 5445 c-81 -209 -156 -543 -156 -694 l0 -58 55 52 c80 76 258
152 391 167 l117 13 -69 73 c-129 135 -254 392 -254 523 0 94 -27 69 -84 -76z"/>
</g>
</svg>
